<svg xmlns="http://www.w3.org/2000/svg" version="1.1" xmlns:xlink="http://www.w3.org/1999/xlink" xmlns:svgjs="http://svgjs.com/svgjs" width="512" height="512" x="0" y="0" viewBox="0 0 64 64" style="enable-background:new 0 0 512 512" xml:space="preserve" class=""><g><path d="M40 28h5a1 1 0 0 0 0-2h-5a1 1 0 0 0 0 2Z" fill="#ffffff" data-original="#000000" class=""></path><path d="M61 26a1 1 0 0 0-1 1v33H9a5 5 0 1 1 5-5 1 1 0 0 0 2 0V28h3a1 1 0 0 0 0-2h-3v-3a7 7 0 0 0-14 0v32a7.008 7.008 0 0 0 7 7h52a1 1 0 0 0 1-1V27a1 1 0 0 0-1-1ZM4 23a5 5 0 0 1 10 0v27.1a6.991 6.991 0 0 0-10 0Z" fill="#ffffff" data-original="#000000" class=""></path><path d="m48.071 38.372 1.6 4 2.4 6a1 1 0 0 0 1.858 0l2.4-6 1.6-4a.988.988 0 0 0 .063-.334c0-.013.008-.024.008-.038V21a1 1 0 0 0-2 0v16h-2V14h2v3a1 1 0 0 0 2 0V7a5 5 0 0 0-10 0v31c0 .014.007.025.008.039a.987.987 0 0 0 .063.333ZM52.077 43h1.846L53 45.308Zm2.646-2h-3.446l-.8-2h5.046ZM52 37h-2V14h2Zm-2-25v-2h6v2Zm0-5a3 3 0 0 1 6 0v1h-6ZM24 21.7v.481a2.982 2.982 0 0 0 0 5.632V28a6.007 6.007 0 0 0 4.138 5.7 8.3 8.3 0 0 1-3.879 2.2l-1.525.382A4.931 4.931 0 0 0 23.93 46H26a1 1 0 0 0 0-2h-2.07a2.931 2.931 0 0 1-.71-5.774l1.525-.381a10.3 10.3 0 0 0 5.779-3.871A6.005 6.005 0 0 0 36 28v-.184a2.982 2.982 0 0 0 0-5.632V21.7a8.972 8.972 0 0 0 1.747-11.269 1 1 0 0 0-1.723 1.017 6.972 6.972 0 0 1-1.65 9.009 1 1 0 0 0-.374.78V22h-.883l.877-7.89a1 1 0 0 0-1.31-1.059L30 13.946l-2.684-.895a1 1 0 0 0-1.31 1.059l.877 7.89H26v-.76a1 1 0 0 0-.374-.78 6.993 6.993 0 0 1 7.923-11.485 1 1 0 1 0 1.017-1.723A8.994 8.994 0 0 0 24 21.7ZM30 32a4 4 0 0 1-4-4h8a4 4 0 0 1-4 4Zm-1.833-16.557 1.517.506a1 1 0 0 0 .632 0l1.517-.506L31.105 22H28.9ZM28 24h7a1 1 0 0 1 0 2H25a1 1 0 0 1 0-2Z" fill="#ffffff" data-original="#000000" class=""></path><circle cx="18" cy="15" r="1" fill="#ffffff" data-original="#000000" class=""></circle><circle cx="42" cy="15" r="1" fill="#ffffff" data-original="#000000" class=""></circle><circle cx="30" cy="3" r="1" fill="#ffffff" data-original="#000000" class=""></circle><path d="M19.108 9.866a1 1 0 1 0-.366-1.366 1 1 0 0 0 .366 1.366ZM39.892 21.866a1 1 0 1 0-.366-1.366 1 1 0 0 0 .366 1.366Z" fill="#ffffff" data-original="#000000" class=""></path><circle cx="36" cy="4.608" r="1" transform="rotate(-15 36.002 4.608)" fill="#ffffff" data-original="#000000" class=""></circle><path d="M40.892 9.866a1 1 0 1 0-1.366-.366 1 1 0 0 0 1.366.366ZM20.474 20.5a1 1 0 1 0-.366 1.366 1 1 0 0 0 .366-1.366ZM24.5 5.474a1 1 0 1 0-1.366-.366 1 1 0 0 0 1.366.366ZM35 54h4a1 1 0 0 0 1-1v-1.681a6.87 6.87 0 0 0 .974-.561l1.454.84a1 1 0 0 0 1.366-.366l2-3.464a1 1 0 0 0-.366-1.366l-1.452-.839a6.66 6.66 0 0 0 0-1.126l1.452-.839a1 1 0 0 0 .366-1.366l-2-3.464a1 1 0 0 0-1.366-.366l-1.454.84a6.87 6.87 0 0 0-.974-.561V37a1 1 0 0 0-1-1h-4a1 1 0 0 0-1 1v1.681a6.87 6.87 0 0 0-.974.561l-1.454-.84a1 1 0 0 0-1.366.366l-2 3.464a1 1 0 0 0 .366 1.366l1.452.839a6.66 6.66 0 0 0 0 1.126l-1.452.839a1 1 0 1 0 1 1.732L31.6 46.96a1 1 0 0 0 .484-1.047 4.78 4.78 0 0 1 0-1.826 1 1 0 0 0-.484-1.047l-1.166-.674 1-1.732 1.166.674a1 1 0 0 0 1.15-.106 4.994 4.994 0 0 1 1.58-.911 1 1 0 0 0 .67-.942V38h2v1.349a1 1 0 0 0 .666.942 4.994 4.994 0 0 1 1.58.911 1 1 0 0 0 1.15.106l1.166-.674 1 1.732-1.162.674a1 1 0 0 0-.484 1.047 4.78 4.78 0 0 1 0 1.826 1 1 0 0 0 .484 1.047l1.166.674-1 1.732-1.166-.674a1 1 0 0 0-1.15.106 4.994 4.994 0 0 1-1.58.911 1 1 0 0 0-.666.942V52H36v-1.349a1 1 0 0 0-.666-.942 4.994 4.994 0 0 1-1.58-.911 1 1 0 0 0-1.15-.106l-2.032 1.174a1 1 0 1 0 1 1.732l1.454-.84a6.87 6.87 0 0 0 .974.561V53a1 1 0 0 0 1 1Z" fill="#ffffff" data-original="#000000" class=""></path><path d="M40 45a3 3 0 1 0-3 3 3 3 0 0 0 3-3Zm-4 0a1 1 0 1 1 1 1 1 1 0 0 1-1-1ZM38 58h12a4 4 0 0 0 4-4v-2a1 1 0 0 0-2 0v2a2 2 0 0 1-2 2H38a1 1 0 0 0 0 2ZM20 54a3 3 0 1 0 3-3 3 3 0 0 0-3 3Zm4 0a1 1 0 1 1-1-1 1 1 0 0 1 1 1Z" fill="#ffffff" data-original="#000000" class=""></path></g></svg>