<svg xmlns="http://www.w3.org/2000/svg" version="1.1" xmlns:xlink="http://www.w3.org/1999/xlink" xmlns:svgjs="http://svgjs.com/svgjs" width="512" height="512" x="0" y="0" viewBox="0 0 512 512" style="enable-background:new 0 0 512 512" xml:space="preserve" class=""><g><path d="M505.737 351.405 479.2 345.5a105.22 105.22 0 0 0-5.665-13.651l14.6-22.953a8 8 0 0 0-1.093-9.95l-27.982-27.982a8 8 0 0 0-9.95-1.093l-22.953 14.6A105.273 105.273 0 0 0 412.5 278.8l-5.9-26.541a8 8 0 0 0-7.814-6.259h-39.572a8 8 0 0 0-7.809 6.264l-5.9 26.541a105.117 105.117 0 0 0-13.652 5.665l-22.953-14.6a8 8 0 0 0-9.95 1.093l-27.982 27.982a8 8 0 0 0-1.093 9.95l14.6 22.953A105.273 105.273 0 0 0 278.8 345.5l-26.541 5.9a8 8 0 0 0-6.259 7.814v39.572a8 8 0 0 0 6.263 7.809l26.542 5.9a105.117 105.117 0 0 0 5.665 13.652l-14.6 22.953a8 8 0 0 0 1.093 9.95l27.982 27.982a8 8 0 0 0 9.95 1.093l22.953-14.6A105.133 105.133 0 0 0 345.5 479.2l5.9 26.541a8 8 0 0 0 7.814 6.259h39.572a8 8 0 0 0 7.809-6.263l5.9-26.541a105.379 105.379 0 0 0 13.652-5.666l22.953 14.6a8 8 0 0 0 9.95-1.093l27.982-27.982a8 8 0 0 0 1.093-9.95l-14.6-22.953A105.273 105.273 0 0 0 479.2 412.5l26.541-5.9a8 8 0 0 0 6.259-7.814v-39.572a8 8 0 0 0-6.263-7.809ZM496 392.37l-24.811 5.519a8 8 0 0 0-5.959 5.626 89.173 89.173 0 0 1-7.928 19.109 8 8 0 0 0 .234 8.193l13.65 21.46-18.909 18.909-21.46-13.65a8 8 0 0 0-8.194-.234 89.178 89.178 0 0 1-19.109 7.929 8 8 0 0 0-5.625 5.958L392.37 496h-26.74l-5.519-24.81a8 8 0 0 0-5.626-5.96 89.173 89.173 0 0 1-19.109-7.928 8 8 0 0 0-8.193.234l-21.46 13.65-18.909-18.909 13.65-21.46a8 8 0 0 0 .235-8.194 89.135 89.135 0 0 1-7.93-19.11 8 8 0 0 0-5.958-5.624L262 392.37v-26.74l24.811-5.519a8 8 0 0 0 5.959-5.626 89.135 89.135 0 0 1 7.929-19.109 8 8 0 0 0-.235-8.193l-13.65-21.46 18.909-18.909 21.46 13.65a8 8 0 0 0 8.194.235 89.156 89.156 0 0 1 19.11-7.93 8 8 0 0 0 5.624-5.959L365.63 262h26.74l5.519 24.811a8 8 0 0 0 5.626 5.959 89.168 89.168 0 0 1 19.109 7.929 8 8 0 0 0 8.193-.235l21.46-13.65 18.909 18.909-13.65 21.46a8 8 0 0 0-.234 8.194 89.225 89.225 0 0 1 7.929 19.11 8 8 0 0 0 5.958 5.624L496 365.63Zm-117-80.479A67.109 67.109 0 1 0 446.109 379 67.185 67.185 0 0 0 379 311.891Zm0 118.218A51.109 51.109 0 1 1 430.109 379 51.167 51.167 0 0 1 379 430.109ZM.07 138.174a133.779 133.779 0 0 0 22.108 69.455 7.966 7.966 0 0 0 .868 1.093 121.074 121.074 0 0 1 30.674 58.644 25.471 25.471 0 0 0 20.4 20.038v16.168a25.768 25.768 0 0 0 17.147 24.251 42.56 42.56 0 0 0 83.47 0 25.768 25.768 0 0 0 17.147-24.251V287.4a25.47 25.47 0 0 0 20.4-20.038 121.07 121.07 0 0 1 30.674-58.644 7.966 7.966 0 0 0 .868-1.093A133.843 133.843 0 0 0 133.052 0h-.1A133.842 133.842 0 0 0 .07 138.174ZM133 346.042a26.554 26.554 0 0 1-24.68-16.742h49.36A26.554 26.554 0 0 1 133 346.042Zm42.882-42.47a9.738 9.738 0 0 1-9.727 9.728h-66.31a9.738 9.738 0 0 1-9.727-9.728v-15.723h85.764ZM104.01 172.9H92.83a11.18 11.18 0 1 1 11.18-11.18Zm16 98.952V188.9h25.981v82.952ZM31.527 75.372A118.189 118.189 0 0 1 133 16a117.843 117.843 0 0 1 97.846 182.242 137.059 137.059 0 0 0-34.23 65.863 9.53 9.53 0 0 1-9.523 7.744h-25.1V188.9h11.177a27.18 27.18 0 1 0-27.179-27.18v11.18H120.01v-11.18a27.18 27.18 0 1 0-27.18 27.18h11.18v82.952h-25.1a9.531 9.531 0 0 1-9.523-7.745 137.055 137.055 0 0 0-34.23-65.862 117.267 117.267 0 0 1-3.63-122.873ZM161.991 172.9v-11.18a11.18 11.18 0 1 1 11.179 11.18Zm97.423 297.721a8 8 0 0 1-8 8h-123.17a8 8 0 0 1-8-8v-67.44l-12.911 12.91a8 8 0 0 1-11.313-11.313l26.567-26.568a8 8 0 0 1 11.314 0l26.567 26.568a8 8 0 1 1-11.313 11.313l-12.911-12.91v59.437h115.17a8 8 0 0 1 8 8Zm116.342-265.934V89.888h-96.679a8 8 0 0 1 0-16h104.679a8 8 0 0 1 8 8v122.8l12.911-12.911a8 8 0 0 1 11.313 11.313l-26.567 26.567a8 8 0 0 1-11.314 0l-26.567-26.567a8 8 0 1 1 11.313-11.314Z" fill="#ffffff" data-original="#000000" class=""></path></g></svg>