<svg xmlns="http://www.w3.org/2000/svg" version="1.1" xmlns:xlink="http://www.w3.org/1999/xlink" xmlns:svgjs="http://svgjs.com/svgjs" width="512" height="512" x="0" y="0" viewBox="0 0 479.976 479.976" style="enable-background:new 0 0 512 512" xml:space="preserve" class=""><g><path d="M279.339 144.016c-3.789-18.657-20.202-32.059-39.24-32.04-13.255 0-24-10.745-24-24s10.745-24 24-24 24 10.745 24 24h16c-.024-19.001-13.389-35.373-32-39.2v-16.8h-16v16.8c-21.65 4.396-35.636 25.51-31.24 47.16 3.789 18.657 20.202 32.059 39.24 32.04 13.255 0 24 10.745 24 24s-10.745 24-24 24-24-10.745-24-24h-16c.024 19.001 13.389 35.373 32 39.2v16.8h16v-16.8c21.649-4.397 35.636-25.511 31.24-47.16z" fill="#ffffff" data-original="#000000" class=""></path><path d="M360.098 119.976C360.085 53.701 306.348-.014 240.074 0 173.8.014 120.085 53.75 120.098 120.025c.012 57.014 40.138 106.148 96 117.551v82.4h-8a8.002 8.002 0 0 0-5.312 2.024l-72 64a8.003 8.003 0 0 0-2.688 5.976v80a8 8 0 0 0 8 8h152c13.197.058 23.943-10.593 24.002-23.79a23.89 23.89 0 0 0-6.242-16.21c8.32-9.044 8.32-22.956 0-32 8.32-9.044 8.32-22.956 0-32 8.894-9.75 8.2-24.864-1.55-33.758a23.9 23.9 0 0 0-16.21-6.242h-9.472a23.999 23.999 0 0 0-14.528-14.528v-83.872c55.838-11.477 95.935-60.596 96-117.6zm-120 267.999v-20h-16v20a27.943 27.943 0 0 0 11.952 22.872 23.696 23.696 0 0 0 2.288 29.128 23.263 23.263 0 0 0-4.8 24h-89.44v-68.408l67.04-59.592h44.96a8 8 0 0 1 8 8v44c0 6.627-5.373 12-12 12s-12-5.372-12-12zm-8-68v-80.408c2.656.176 5.296.408 8 .408s5.344-.232 8-.408v80.408h-16zm56 144h-32a8 8 0 0 1 0-16h32a8 8 0 0 1 0 16zm-8-112h8a8 8 0 0 1 0 16h-8v-16zm0 36v-4h8a8 8 0 0 1 0 16H277.29a27.7 27.7 0 0 0 2.808-12zm8 28a8 8 0 0 1 0 16h-32a8 8 0 0 1 0-16h32zm-48-192c-57.41-.066-103.934-46.59-104-104 0-57.438 46.562-104 104-104s104 46.562 104 104-46.562 104-104 104zM72.098 311.975a8 8 0 1 1 8-8h16a24 24 0 0 0-16-22.528v-9.472h-16v9.472c-12.473 4.393-19.023 18.066-14.629 30.539a23.943 23.943 0 0 0 22.629 15.989 8 8 0 1 1-8 8h-16a24 24 0 0 0 16 22.528v9.472h16v-9.472c12.473-4.393 19.023-18.066 14.629-30.539a23.944 23.944 0 0 0-22.629-15.989z" fill="#ffffff" data-original="#000000" class=""></path><path d="M72.124 247.949C32.359 247.935.112 280.158.098 319.923c-.013 36.679 27.548 67.505 64 71.58v88.472h16v-88.472c36.414-4.108 63.95-34.883 64-71.528.015-39.764-32.209-72.011-71.974-72.026zm-.026 128.026c-30.928 0-56-25.072-56-56s25.072-56 56-56 56 25.072 56 56c-.039 30.912-25.088 55.961-56 56zM408.098 311.975a8 8 0 1 1 8-8h16a24 24 0 0 0-16-22.528v-9.472h-16v9.472c-12.473 4.393-19.023 18.066-14.629 30.539a23.943 23.943 0 0 0 22.629 15.989 8 8 0 1 1-8 8h-16a24 24 0 0 0 16 22.528v9.472h16v-9.472c12.473-4.393 19.023-18.066 14.63-30.539a23.947 23.947 0 0 0-22.63-15.989z" fill="#ffffff" data-original="#000000" class=""></path><path d="M479.399 311.748c-4.17-36.255-34.807-63.657-71.301-63.772-39.764.126-71.898 32.463-71.772 72.227.115 36.494 27.517 67.131 63.772 71.301v88.472h16v-88.472c39.504-4.544 67.845-40.252 63.301-79.756zm-71.301 64.227c-30.928 0-56-25.072-56-56s25.072-56 56-56 56 25.072 56 56c-.039 30.912-25.088 55.961-56 56z" fill="#ffffff" data-original="#000000" class=""></path></g></svg>