<svg xmlns="http://www.w3.org/2000/svg" version="1.1" xmlns:xlink="http://www.w3.org/1999/xlink" xmlns:svgjs="http://svgjs.com/svgjs" width="512" height="512" x="0" y="0" viewBox="0 0 64 64" style="enable-background:new 0 0 512 512" xml:space="preserve" class=""><g><path d="M6.06 40.66a1 1 0 0 0 .57.59L11 43v11a1 1 0 0 0 .67.94l20 7a.94.94 0 0 0 .66 0l20-7A1 1 0 0 0 53 54V43l4.37-1.72a1 1 0 0 0 .57-.59 1 1 0 0 0-.06-.81l-4.78-8.94 3.83-9.57a1 1 0 0 0 0-.8 1 1 0 0 0-.61-.53L42.91 16a12 12 0 0 0-21.82 0L7.71 20a1 1 0 0 0-.61.53 1 1 0 0 0 0 .8l3.83 9.57-4.81 8.95a1 1 0 0 0-.06.81zM13 43.75l13.16 5.18a1 1 0 0 0 .37.07 1 1 0 0 0 .9-.55L31 41.26v18.33l-18-6.3zm14-11.86v2.57L15.48 31l7.4-2.22A12 12 0 0 0 27 31.89zm2 .72a11.73 11.73 0 0 0 6 0v2.45L32 36l-3-.9zM32 23a2 2 0 1 1 2-2 2 2 0 0 1-2 2zm9.12 5.78 7.4 2.22L37 34.46v-2.57a12 12 0 0 0 4.12-3.11zM51 53.29l-18 6.3V41.26l3.57 7.19a1 1 0 0 0 .9.55 1 1 0 0 0 .37-.07L51 43.75zm4.59-13.49L38 46.73l-4.54-9.11 18.09-5.43zm-.92-18.16-3.26 8.14-9.07-2.72A11.89 11.89 0 0 0 44 21a12.07 12.07 0 0 0-.3-2.64zM32 11a10 10 0 0 1 1 20v-6.14a4 4 0 1 0-2 0V31a10 10 0 0 1 1-20zM9.33 21.64l11-3.28A12.07 12.07 0 0 0 20 21a11.89 11.89 0 0 0 1.66 6.06l-9.07 2.72zm3.16 10.55 18.09 5.43L26 46.73 8.41 39.8zM31 3h2v4h-2zM41.19 10.408l2.828-2.828 1.414 1.414-2.828 2.828zM18.568 8.976l1.414-1.414 2.828 2.828-1.414 1.414z" fill="#ffffff" data-original="#000000"></path></g></svg>